<?xml version="1.0" encoding="UTF-8" standalone="no"?>
<svg
   xmlns:dc="http://purl.org/dc/elements/1.1/"
   xmlns:cc="http://creativecommons.org/ns#"
   xmlns:rdf="http://www.w3.org/1999/02/22-rdf-syntax-ns#"
   xmlns:svg="http://www.w3.org/2000/svg"
   xmlns="http://www.w3.org/2000/svg"
   xmlns:sodipodi="http://sodipodi.sourceforge.net/DTD/sodipodi-0.dtd"
   xmlns:inkscape="http://www.inkscape.org/namespaces/inkscape"
   viewBox="0 0 24 24"
   class="icon-help"
   version="1.1"
   id="svg6"
   sodipodi:docname="icon-help.svg"
   inkscape:version="0.92.3 (2405546, 2018-03-11)">
  <metadata
     id="metadata12">
    <rdf:RDF>
      <cc:Work
         rdf:about="">
        <dc:format>image/svg+xml</dc:format>
        <dc:type
           rdf:resource="http://purl.org/dc/dcmitype/StillImage" />
        <dc:title></dc:title>
      </cc:Work>
    </rdf:RDF>
  </metadata>
  <defs
     id="defs10" />
  <sodipodi:namedview
     pagecolor="#ffffff"
     bordercolor="#666666"
     borderopacity="1"
     objecttolerance="10"
     gridtolerance="10"
     guidetolerance="10"
     inkscape:pageopacity="0"
     inkscape:pageshadow="2"
     inkscape:window-width="1348"
     inkscape:window-height="731"
     id="namedview8"
     showgrid="false"
     inkscape:zoom="9.8333333"
     inkscape:cx="12"
     inkscape:cy="12"
     inkscape:window-x="0"
     inkscape:window-y="27"
     inkscape:window-maximized="0"
     inkscape:current-layer="svg6" />
  <path
     class="primary"
     d="M12 22a10 10 0 1 1 0-20 10 10 0 0 1 0 20z"
     id="path2"
     style="fill:#ffffff;fill-opacity:1;stroke:#000000;stroke-opacity:1" />
  <path
     class="secondary"
     d="m 12.03658,17.466102 a 1.0791935,1.0791935 0 1 1 0,-2.158387 1.0791935,1.0791935 0 0 1 0,2.158387 z m 0.719463,-3.957043 a 0.7194625,0.7194625 0 0 1 -1.438925,0 v -1.014442 a 0.7194623,0.7194623 0 0 1 0.395704,-0.647516 l 1.762683,-0.85616 c 0.460456,-0.302174 0.719462,-0.697878 0.719462,-1.0791935 0,-0.7410462 -0.935301,-1.4389246 -2.158387,-1.4389246 -0.971274,0 -1.791461,0.4460666 -2.0648566,1.0288311 A 0.7194623,0.7194623 0 0 1 8.6766913,8.8829164 C 9.1947042,7.7605552 10.540099,7.0338983 12.03658,7.0338983 c 1.942548,0 3.597312,1.2374752 3.597312,2.8778492 0,0.9353015 -0.546792,1.7698775 -1.474898,2.3310575 l -1.402951,0.690684 z"
     id="path4"
     inkscape:connector-curvature="0"
     style="stroke-width:0.71946228" />
</svg>
